# xmcd CD database file
#
# Track frame offsets:
#	150
#	10531
#	38166
#	68542
#	93637
#	105792
#	154796
#	185345
#	224900
#	260844
#
# Disc length: 3752 seconds
#
# Revision: 0
# Processed by: cddbd v1.5.1PL0 Copyright (c) Steve Scherf et al.
# Submitted via: CDex 1.51
#
DISCID=800ea60a
DTITLE=Gianni Coscia Quartet - A Kramer Piaceva Così
DYEAR=1999
DGENRE=Jazz
TTITLE0=L'Orchestra Del Cuore
TTITLE1=Tomorrow Night
TTITLE2=Buonanotte Al Mare
TTITLE3=Donna
TTITLE4=Dove Andranno A finire I Palloncini
TTITLE5=La Mia Donna Si Chiama Desiderio
TTITLE6=Crapa Pelada
TTITLE7=In un Palco Della Scala
TTITLE8=Merci Beaucoup - L'Orchestra Del cuore
TTITLE9=Prime Lacrime
EXTD=YEAR: 1999
EXTT0=
EXTT1=
EXTT2=
EXTT3=
EXTT4=
EXTT5=
EXTT6=
EXTT7=
EXTT8=
EXTT9=
PLAYORDER=
